inDegrees=yes
name=ik_S52_A08_T02
DataType=double
version=3
OpenSimVersion=4.3-2021-08-27-4bc7ad9
endheader
time	pelvis_tilt	pelvis_list	pelvis_rotation	pelvis_tx	pelvis_ty	pelvis_tz	hip_flexion_r	hip_adduction_r	hip_rotation_r	knee_angle_r	knee_angle_r_beta	ankle_angle_r	subtalar_angle_r	mtp_angle_r	hip_flexion_l	hip_adduction_l	hip_rotation_l	knee_angle_l	knee_angle_l_beta	ankle_angle_l	subtalar_angle_l	mtp_angle_l	lumbar_extension	lumbar_bending	lumbar_rotation	arm_flex_r	arm_add_r	arm_rot_r	elbow_flex_r	pro_sup_r	wrist_flex_r	wrist_dev_r	arm_flex_l	arm_add_l	arm_rot_l	elbow_flex_l	pro_sup_l	wrist_flex_l	wrist_dev_l
0	0	0	0	0	0.9399999999999999	0	0	0	0	0	0	0	0	0	0	0	0	0	0	0	0	0	0	0	0	0	0	0	0	89.99999999963507	0	0	0	0	0	0	89.99999999869995	0	0
0.02	-4.208971006771007	0.4793658642740192	20.91416389685713	0	0.9399999999999999	0	3.432040488467835	-1.60420110912764	-1.155305500609147	5.296400629092654	0.09243962948236578	0	0	0	3.432040488467835	-1.60420110912764	-1.155305500609147	5.296400629092654	0.09243962948236578	0	0	0	-1.476443791899142	-2.115820992247679	2.232867683924763	31.50768945547435	-10.0921230480899	-11.92637450583339	32.71036786743969	143.6264174687185	0	0	19.98993139725794	-11.6608922495457	-14.06680256792155	50.48155244406862	114.6365944142836	0	0
0.04	-4.012710496719428	0.6558848619330788	19.22266867134224	0	0.9399999999999999	0	41.58462541469104	-10.08580206310775	-10.2039901373272	56.18804584903741	0.9806664003272355	0	0	0	41.58462541469104	-10.08580206310775	-10.2039901373272	56.18804584903741	0.9806664003272355	0	0	0	-1.673992089966022	-2.260129467545892	3.923318664454693	31.47727531321813	-10.08476084546086	-11.94836874804395	32.76526579277019	143.6287006260318	0	0	19.95295137886578	-11.65359837963328	-14.04655773478844	50.52827504369367	114.6182397759131	0	0
0.06	-4.015200419441685	0.652992552507065	19.23116134932349	0	0.9399999999999999	0	41.5847198929164	-10.08569704183643	-10.20389506301235	56.18806870552531	0.9806667992482049	0	0	0	41.5847198929164	-10.08569704183643	-10.20389506301235	56.18806870552531	0.9806667992482049	0	0	0	-1.677267811582133	-2.262100574767225	3.923411241635576	31.45686031741838	-10.08188822242471	-11.96021475597871	32.78013550444759	143.6134071357874	0	0	19.94063810922201	-11.64112265441175	-14.06406560879552	50.52766662640417	114.6150129465895	0	0
0.08	-4.017679567683438	0.6455885992699074	19.24514324488015	0	0.9399999999999999	0	41.58525309940278	-10.08558413546325	-10.20376744868875	56.18797579696218	0.9806651776878749	0	0	0	41.58525309940278	-10.08558413546325	-10.20376744868875	56.18797579696218	0.9806651776878749	0	0	0	-1.682222857020165	-2.267966788481966	3.924864325366972	31.44619106072162	-10.09217083920515	-11.96926084312878	32.80349360063016	143.6075089878466	0	-1.607035788520273e-36	19.91152156779514	-11.63962907219158	-14.08906524509795	50.53528133988065	114.6320917101977	0	-1.607035788520273e-36
0.1	-4.025095939684378	0.6412799610269443	19.2455191893275	0	0.9399999999999999	0	41.58621251505807	-10.0854187063097	-10.20357017102843	56.18778870964845	0.9806619123982616	0	0	0	41.58621251505807	-10.0854187063097	-10.20357017102843	56.18778870964845	0.9806619123982616	0	0	0	-1.690777012700234	-2.268343718018555	3.904278813398846	31.4150110949895	-10.0930449989566	-11.96558696071523	32.8964030091178	143.6263957560155	0	0	19.86980015313036	-11.61013207280348	-14.19845606249292	50.61472046432768	114.8433901719757	0	0
0.12	-4.042978248638515	0.6293519628104257	19.25473939418235	0	0.9399999999999999	0	41.58329817251144	-10.08540215592149	-10.20371963495072	56.18860526999117	0.9806761640647833	0	0	0	41.58329817251144	-10.08540215592149	-10.20371963495072	56.18860526999117	0.9806761640647833	0	0	0	-1.710249847704975	-2.276710488581277	3.909051687928817	31.4373419978758	-10.11157774497917	-11.96188072397547	32.89932755291116	143.6300700968542	0	0	19.88242269978949	-11.62896054851641	-14.19472894167854	50.61648026773006	114.8723509253368	0	0
0.14	-4.047919596367293	0.6173231849578856	19.25514435653747	0	0.9399999999999999	0	41.58810593057017	-10.08497909449015	-10.20307763235749	56.18748699380652	0.9806566464634144	0	0	0	41.58810593057017	-10.08497909449015	-10.20307763235749	56.18748699380652	0.9806566464634144	0	0	0	-1.720857020760161	-2.282438950244542	3.911106170444243	31.41781964302235	-10.13007334271735	-11.93870652265601	32.94756704396139	143.5847869018983	0	0	19.92817717343316	-11.62897876287256	-14.18099840744518	50.65391204593526	114.8755187393289	0	0
0.16	-4.038968383746654	0.6201132088152613	19.24900669583227	0	0.9399999999999999	0	41.58818040213869	-10.08491609632071	-10.2030192353279	56.18749500988921	0.9806567863704506	0	0	0	41.58818040213869	-10.08491609632071	-10.2030192353279	56.18749500988921	0.9806567863704506	0	0	0	-1.711495290095735	-2.28287664885249	3.914136852718439	31.40527106807334	-10.12400946645799	-11.91076847476864	32.94604052447252	143.5935730971435	0	0	19.93661199159286	-11.63437252814519	-14.14059608631751	50.65161581312388	114.8887037846463	0	0
0.18	-4.024517671626196	0.6159814530288159	19.26743222952348	0	0.9399999999999999	0	41.58703271337982	-10.08499914336694	-10.20316202192648	56.18776266160346	0.980661457774113	0	0	0	41.58703271337982	-10.08499914336694	-10.20316202192648	56.18776266160346	0.980661457774113	0	0	0	-1.698807444252109	-2.292685546896422	3.920061496763396	31.39271251267821	-10.11408855828702	-11.9303565125133	32.90588433027628	143.6624706236427	0	0	19.97115139123156	-11.64110807821386	-14.10909652971901	50.60257047915074	114.9076732424045	0	0
